# xmcd
#
# Track frame offsets:
#	150
#	17559
#	36801
#	54061
#	69652
#	92232
#	116701
#	130078
#	140367
#	163154
#	192825
#
# Disc length: 2823 seconds
# Revision: 0
# Processed by: cddbd v1.5.2PL0 Copyright (c) Steve Scherf et al.
# Submitted via: dBpowerAMP V12.0
#
DISCID=910b050b
DTITLE=Thad Bechman - Streets of Disaster
DYEAR=2014
DGENRE=Blues
TTITLE0=Street Of Disaster
TTITLE1=The Devil Speaks
TTITLE2=I Went So Wrong
TTITLE3=Stirring Up Some Ashes
TTITLE4=Blues In My Blood
TTITLE5=Good Morning Heartache
TTITLE6=If Only My Heart Had A Brain
TTITLE7=200 Dollars
TTITLE8=James Alley Blues
TTITLE9=A Soldier Returns Home
TTITLE10=Blue Wing
EXTD=
EXTT0=
EXTT1=
EXTT2=
EXTT3=
EXTT4=
EXTT5=
EXTT6=
EXTT7=
EXTT8=
EXTT9=
EXTT10=
PLAYORDER=
